<?xml version="1.0" encoding="utf-8"?>
<!-- Generator: Adobe Illustrator 22.1.0, SVG Export Plug-In . SVG Version: 6.00 Build 0)  -->
<svg version="1.1" baseProfile="tiny" id="Layer_1" xmlns="http://www.w3.org/2000/svg" xmlns:xlink="http://www.w3.org/1999/xlink"
	 x="0px" y="0px" viewBox="0 0 44 44" xml:space="preserve">
<path fill="#012E22" d="M41.5,6c0-2-1.6-3.5-3.5-3.5H6c-2,0-3.5,1.6-3.5,3.5v5.8h39V6z"/>
<path fill="#CCECFC" d="M2.5,11.8V38c0,2,1.6,3.5,3.5,3.5H38c2,0,3.5-1.6,3.5-3.5V11.8H2.5z"/>
<path fill="#FFFFFF" d="M39.3,7.8c0,0.6-0.5,1-1,1h-21c-0.5,0-1-0.4-1-1V6.1c0-0.6,0.5-1,1-1h21c0.5,0,1,0.4,1,1V7.8z"/>
<circle fill="#8DC63F" cx="7" cy="6.9" r="1.8"/>
<circle fill="#FFF200" cx="12.5" cy="6.9" r="1.8"/>
<rect x="5.2" y="14.5" fill="#79D0E3" width="19.1" height="14.2"/>
<rect x="27.8" y="14.5" fill="#79D0E3" width="10.8" height="23.7"/>
<rect x="5.2" y="31.6" fill="#79D0E3" width="19.1" height="6.7"/>
<rect fill="none" width="44" height="44"/>
</svg>
